<?xml version="1.0" encoding="UTF-8"?><svg id="_レイヤー_2" xmlns="http://www.w3.org/2000/svg" viewBox="0 0 379.39 114.37"><defs><style>.cls-1{fill:#fff;}</style></defs><g id="_レイヤー_1-2"><path class="cls-1" d="M360.48,23.21l-1.96,3.96c6.87-2.82,10.72,1.99,6.35,12.78-5.81,14.36-15.7,31.91-22.32,46.61l-3.28,4.39c-.74,1.2-3.1,1.98-3.38,2.81-.07.2.78,1.43.83,2.19.61,8.29-9.51,22-14.23,17.4-1.65-1.61.63-9.2-1.57-9.37-1.86-.14-10,6.92-13.01,8.57-5.87,3.22-12.37,2.78-9.84-6.19-1.01-.03-1.71-.7-2.67-.81-6.46-.77-16.68,7.21-20.9,3.32-1.47-1.35-2.62-5.2-.09-9.71,1.02-1.34,5.26-2.41,6.93-4.79-2.46-3.18.29-11.68,4.19-19.02,5.93-11.18,10.65-9.72,8.19-.98l4.4-4.2c-1.75-2.46-3.62-4.01-2.51-9.52,1.48-7.32,5.97-19.1,11.67-26.81l5.69-6.65c-1.95-.52-1.94-4.68.86-8.83,1.08-1.61,2.67-1.9,3.83-2.7,1.75-1.21,3.57-2.75,5.32-3.88,9.27-6.02,32.18-16.99,26.61.82-.08.26-.52.91.05.59s2.48-2,3.4-2.61c8.69-5.71,21.01-11.28,25.17-6.54,2.31,2.64,1.24,9.43-3.3,16.36s-6.98,2.04-9.04,1.59c-1.54-.34-3.39.43-5.39,1.24ZM345.7,29.17h-3.46c-.35,0-1.62-.67-1.95-.91-1.14-.86-2.03-3.32.2-6.68-1.33-.3-3.06.48-4.73,1l-2.69,1.4c3.22,1.02,3.1,6.03,3.13,10.74,1.2-.58,2.01-1.32,2.99-1.15.83.15.95,2.01,1.46,1.84,1.88-.62,3.66-3.9,5.04-6.22ZM322.43,28.37c-4.51.17-9.48,6.3-13.14,13.59,1.42-.98,2.68-2.99,4.04-4.52,3-3.37,6.03-6.49,9.1-9.07ZM305.95,48.77c-.82,1.55-2.42,8.09-1.38,7.83.93-.59,1.89-1.28,2.79-1.74,4.25-2.18,5.51-1.78,10.28-6.49,1.11-1.09,7.62-7.88,8.14-8.71,1-1.59.46-3.49-.44-3.14-1.19.47-6.58,6.28-8.42,7.83-4.3,3.64-7.87,4.58-10.97,4.41ZM337.37,47.97l-3.34,6.8c5.14-3.15,11.89-7.85,14.21-4.4,2.13-3.04,3.51-7.21,1.42-7.2-1.27,0-6.24,3.49-8.2,4.21-1.56.58-2.83.73-4.09.6ZM324.6,57.16c.77-1.93,3.19-5.3,3.88-6.98.24-.58.31-1.06-.06-1.03-.7,0-3.81,4.06-4.8,5.02l.98,2.99ZM328.66,64.36l-3.73,7.6,6.92-5.01c3.06-1.74,7.51-4.2,8.27-1.39l3.39-5.99c-1.19.26-2.47.17-3.65.5-3.53.98-8.22,4.74-11.21,4.3ZM318.97,66.36l-6.66,2.2c1.11,1.64,2.76,2.61,2.93,5.4l3.73-7.6ZM302.75,72.45c-1.85.63-10.29,10.88-10.75,12.71-.17.67.34,1.4.4,1.93.48-.01,10.14-9.27,11.06-10.71,1.98-3.08,1.08-4.54-.71-3.93ZM333.37,77.96c-3.84.21-10.13,5.79-12.9,4l-2.69,6.4c4.75-3.2,9.12-4.9,13.31-6.19l2.28-4.21ZM304.55,90.76l1.34,1.6c3.27-1.79,4.11-6.08,5.7-9.59l-7.04,7.99ZM310,98.76c-1.49.31-1.63-1.43-2.58-1.98-5.93,7.12-2.56,6.77,1.85,2.89.28-.25.41.02.73-.91Z"/><path class="cls-1" d="M303.6,23.83c-1.08,1.06-2.45,1.84-3.23,1.74-.61,2.06-.5,3.86-1.69,6.18s-3.11,4.16-4.64,5.81c2.38,2.13,3.33,7.9-2,15.07-6.88,9.25-10.64,2-13.92.64-8.09-3.37-22.69,2.17-34.28,6.16-2.67.92-5.73,2.66-7.98,2.53v4.8c6.43-1.48,13.87-5.71,20.65-8.13s13.17-4,18.07-2.62c10.83,3.04,2.5,22.66-8.1,41.28-6.02,10.58-10.62,15.72-16.61,15.06-4.53-.5-8-2.2-13.09-2.01-7.08.26-22.26,5.75-25.72.7-5.18-7.59,6.77-25.31,13.76-38.88,2.06-4,.89-3.72,1.69-6.5.53-1.86,1.14-2.34,2.09-4.11-1.94-.44-1.76-7.16,1.03-10.79.89-1.15,7.1-3.15,8.35-3.6.42-.42.25-3.59.34-4.26.56-4.06,1.81-6.61,5-10.95-1.25-2.06-.42-11.66,4.69-13.09,1.96-.55,3.13-.14,5.51-1.01,5.1-1.86,10.91-5.13,15.96-6.69,2.24-6.56,7.47-9.72,10.99-10.69,4.62-1.28,7.18.08,9.16,3.29.32.52.47,1.96.9,2.14.51.22,1.29-.34,1.9-.35,5.82-.15,14.74-.3,15.85,6.83.45,2.89-1.05,7.89-4.69,11.45ZM282.6,27.19c-1.33-1.11-3.02-.84-5.24-.15-5.34,1.64-11.54,6.07-17.59,12.13,1.82,0,3.99-1.11,6.21-2.2,5.27-2.6,10.97-6.69,16.05-8.6l.57-1.17ZM261.38,29.97l-10.84,2.99,1.29,4.87c3.12-2.25,6.39-4.6,9.55-7.86ZM263.51,74.76c3.38-6.41,2.66-6.79-.77-6.39-8.08.93-21.25,9.5-27.97,9.21-.66-.03-2.88-1.34-3.61-.15l-2.34,4.3c-.45,1.09,3.38.28,4.02.12,3.89-.94,9.09-3.24,13.29-4.8,6.63-2.46,13.89-6.65,17.37-2.29ZM253.81,93.11c.55-.96,3.3-4.92,3.12-5.36-4.15-1.32-9.77,1.25-15.02,2.55-4.24,1.05-10.35,3.05-14.06,3.26-1.59.09-2.71-.68-4.18-.8-1.15,2.25-2.52,4.8-2.07,6.24,10.99-2.59,22.17-5.46,32.23-5.89Z"/><path class="cls-1" d="M164.43,25.57c-.3,4.21-2.08,8.08-6.1,11.99,2.31,2.14,3.26,8.56-2.42,15.49-6.92,8.45-10.29,1.64-13.74.24-10.12-4.1-26.78,4.5-40.57,8.57-.54.16-.98.12-1.44.1-.39.61-.24.66-.27,1s-.07,3.03-.03,3.22c.21,1.12,3.41-.29,4.67-.74,11.08-4,22.66-10.89,31.94-9.9,12.13,1.29,8.11,15.47-2.71,36.23-6.16,11.82-12.23,21.37-19.59,20.58-4.6-.5-8.17-2.2-13.31-2.01-5.54.2-11.99,2.31-17.67,2.81-13.09,1.16-11.29-9.15-.25-30.19,1.76-3.36,5.6-9.33,6.88-12.29s-.14-5.44,3.17-9.1c-1.62-.66-2.1-4.24-.6-7.84.53-1.26,1.17-2.77,2.18-3.55,1.82-1.41,5.85-2.19,7.72-3.02.47-1.81.04-2.83.33-4.68.59-3.75,2-6.68,5.02-10.53-.68-2.58-1.52-5.21,1.3-10.21,2.21-3.93,5.2-2.69,6.93-3.16l17.37-7.21c2.22-3.72,3.06-5.88,6.14-8.22,6.47-4.92,11.9-3.41,14.32.19.42.62.52,2.3,1.14,2.54.54.21,1.28-.34,1.89-.35,5.48-.07,15.88-.16,15.93,7.82.03,4.62-4.31,11.91-8.22,12.2ZM146.91,27.17c-1.74-1.34-4.1-.61-6.99.51-5.16,2-10.4,6.07-16.07,11.48,6.37-.93,14.81-7.66,21.93-10.71l1.14-1.28ZM125.67,29.97l-10.84,2.99c.35.77.63,4.94,1.3,4.86,3.14-2.27,6.37-4.84,9.55-7.85ZM127.8,74.76c.3-1.68,2.55-4.82,2.19-6.02-.41-1.39-8.05.8-9.98,1.43-6.15,1.97-15.96,7.62-20.95,7.42-.64-.02-2.82-1.12-3.47-.35l-2.8,4.73c1.08.67,2.73.29,4.34-.11,3.6-.88,8.33-2.95,12.2-4.4,6.96-2.6,14.78-7.19,18.46-2.69ZM118.1,93.14l3.11-5.39c-3.65-1.34-8.6.94-13.27,2.1s-11.61,3.42-15.82,3.7c-1.72.11-2.8-.73-4.41-.79-.78,1.45-2.67,5.97-1.84,6.23,5.46-1.27,11.04-2.8,16.4-3.83s10.86-1.99,15.82-2.02Z"/><path class="cls-1" d="M213.84,39.97l-3.34,6.8c4.1-1.65,6.89-2.34,8.49.73,2.3,4.4-.44,14.68-6.08,23.44-3.02,4.69-6.68,8.3-9.77,12.76-.22,6.17-.56,11.42-5.43,19.95-4.29,7.51-12.06,12.05-12.73,6.71-.28-2.21.81-5.67,1.23-8.4-10.01,9.96-20.76,15.46-21.35,4.4-1.8,2.1-2.84,5.01-4.93,6.19-3.36,1.89-6.46-.06-5.87-4.2-2.33,1.84-3.9,3.78-5.97,4.02-4.73.54-6.37-9.45-4.37-16.71,3.53-12.8,12.65-24.22,21.81-34.09-1.98-1.9-4.88-2.45-3.25-8.29,3.01-10.78,12.09-17.78,18.87-23.11-.79-5.42-3.42-8.42,4.62-17.53,9.94-11.26,12.47-1.92,10.96,6.92,6.75-9,12.1-6.99,9.7,1.62.55,0,7.52-5.57,7.83-6.21-.49-4.04,1.96-9.39,6.57-11.87,2.85-1.53,4.7-1.17,6.16.16.68.61,1.04,2.79,1.51,3.03,1.01.51,3.27-.12,4.55.13,4.88.96,6.18,9.73,2.14,19.45-6.75,16.28-17.1,19.06-21.37,14.09ZM220.2,28.37c1.14-.4,4.77-1.28,5.94-3.08,1.07-1.64.48-4.07-.68-3.43-.17.09-3.43,3.1-3.59,3.32-.72.97-1.14,2.17-1.68,3.19ZM164.69,85.56c4.89-7.75,8.57-15.86,12.79-23.79,5.61-10.53,11.52-21.05,16.97-31.62l-.11-2.98c-.72.85-.87,1.95-1.36,2.9-1.89,3.61-5.83,6.89-7.19,9.28-.88,1.56-3.04,6-3.69,7.58-1.81,4.38-1.33,6.19-4.59,11.93-1.4,2.47-4.02,5.52-5.06,7.68-1.83,3.8-3.26,8.09-5.16,11.97l-2.6,7.05ZM202.99,37.97c-1.68.6-3.11,1.19-3.6-.4l-8.47,16.8,4.8-1.6,7.26-14.8ZM183.43,39.17c-1.63.48-3.52.92-5.49,3l2.35,3.4,3.14-6.4ZM196.34,68.37c-.25.56.03.62.15.81.32.53,2.39,2.91,2.86,2.73,1.88-1.71,7.29-6.22,6.09-8.29-.6-1.04-2.99,1.4-4.47,2.3s-3.21,1.83-4.64,2.45ZM184.43,67.16l-3.73,7.6,5.67-5.19-1.94-2.4ZM166.67,71.96c-4.28,3.59-10.64,12.18-8.04,15.03.3-.21,2.07-2.86,2.25-3.23l5.79-11.8ZM185.36,84.37c-.79-3.46-5.03-4.86-9.33,2.38-1.52,2.56-.41,5.13.99,4.82.85-.19,8.26-6.37,8.34-7.19Z"/><path class="cls-1" d="M81.82,51.56c2.37,5.24.15,14.77-6.92,24.8-1.08,1.52-3.34,4.08-4.11,5.51-.6,1.12-.98,3.38-1.85,5.08-.73,1.43-1.77,2.47-2.55,3.81,4.38,2.23-5.41,15.72-10.64,19.27-5.49,3.72-13.07,2.64-17.25,2.33-5.84-.43-11.18-1.34-15.39-4.69-3.52-2.8-6.16-6.65-7.62-12.1-.3.03-2.8,4.42-3.43,5.37-2.69,4.06-6.29,8.83-9.19,9.38-1.42.27-2.52-.02-2.79-1.55-1.3-7.4,16.16-27.76,19.93-37.31.76-1.94.57-3,1.74-5.44,2.15-4.5,5.81-7,6.63-4.46s-.44,8-2.31,12.22c-1.1,2.49-2.26,3.19-.5,4.18,1.78-3.53,3.42-7.08,5.2-10.61.67-1.34,1.6-2.5,2.17-3.96.61-1.57.05-3.41,1-5.42l-.25-.4c-2.07-.04-4.17-.46-5.01-2.46-.55-1.31-1.06-5.54,1.38-8.13s9.57-4.87,12.46-7.25l2.26-4.55c-3.39,1.14-7.41-4.51-2.85-10.79,1.67-2.31,9.46-5.31,11.78-7.44.59-.9-.03-2.58.05-3.63.53-7.11,7.2-12.02,10.65-11.22,1.43.33,2.92,2.09,3.29,3.89.24,1.14-.35,5.01-.07,5.39.43.6,2.3.68,3.06,1.13,1.37.82,2.17,2.27,2.3,4.62,6.79-3.16,14.93-11.59,21.54-13.82,7.47-2.52,10.45,5.64,7.63,16.01-1.68,6.18-11,22.39-15.83,27.84-.83.94-4.43,3.84-4.5,4.42ZM82.04,35.07c.85-.79,9.56-13.7,10.05-14.88.19-.47.28-.8.12-.99-.59-.43-7.87,5.24-9.35,6.64-1,3.24-2.02,5.92-4.16,9.33.79.08,2.14,1.03,3.34-.1ZM71.35,28.78l-2.04-2c-.45.01-1.63,1.43-2.31,1.92-3.29,2.38-5.66,2.16-8.4,2.91l-1.97,3.96c2.63-.02,5.14.48,6.38,2.71,2.84-2.87,5.71-5.98,8.34-9.5ZM48.38,68.76c.83-1.26,2.3-2.93,2.97-4.24.92-1.8.29-3.51,1.88-4.98,3.07-2.83,3.9.65,5.57-.06.58-.25,5.88-5.04,7.19-6.08,1.64-1.31,3.25-2.38,4.88-3.64l-1.11-3.37c-4.13,4.46-10.87,11.83-13.18,9.12-.39-.46-.6-2.62-.74-2.68-.28-.12-1.91.95-2.53,1.09-2.79.6-5.04-.69-8.32.84-.09,1.2-.11,2.33-.44,3.72-.51,2.18-1.64,4.57-2.09,6.66,2.61-.85,3.35-5.12,5.87-5.6,2-.38,2.15.83,1.72,3.48l-1.66,5.72ZM51.46,77.96c.03.69,9.52-3.33,10.8-3.57,2.15-2.53,8.46-8.07,9.72-10.98.53-1.21.84-4.03,0-3.78-.46.14-6.91,6.67-8.18,7.74-3.49,2.95-6.92,4.4-9.62,4.6l-2.72,5.99ZM61.05,91.16c-2.81-1.48-5.96-2.46-9.84-2-3.47.41-7.81,2.93-9.52-.08-1.16-2.04.4-5.75.86-9.12-3.39,3.02-6.23,3.95-8.57,3.61l-2.43,4.53.07.57c5.84,5.06,14.52,4.97,23.63,4.07l5.8-1.59Z"/></g></svg>