<?xml version="1.0" encoding="UTF-8"?><svg id="_レイヤー_2" xmlns="http://www.w3.org/2000/svg" viewBox="0 0 97.45 60.75"><defs><style>.cls-1{fill:#f5f5f5;}</style></defs><g id="_レイヤー_1-2"><path class="cls-1" d="M1.31,15.35c0-.31-.13-.53-.29-.53H.28c-.16,0-.28-.24-.28-.53V.53C0,.24.12,0,.28,0h.89c.16,0,.29.24.29.53v13.47c0,.31.13.53.29.53h.6c.16,0,.29-.22.29-.53V2.96c0-.31.13-.53.29-.53h.89c.16,0,.29.22.29.53v11.04c0,.31.13.53.29.53h.59c.17,0,.29-.22.29-.53V.53c0-.29.13-.53.29-.53h.89c.17,0,.29.24.29.53v13.76c0,.29-.12.53-.29.53h-.73c-.17,0-.29.22-.29.53v3.78c0,.29-.13.53-.29.53h-.89c-.17,0-.29-.24-.29-.53v-3.78c0-.31-.13-.53-.29-.53h-.6c-.16,0-.29.22-.29.53v3.78c0,.29-.13.53-.29.53h-.89c-.16,0-.29-.24-.29-.53v-3.78Z"/><path class="cls-1" d="M11.21,2.16c0,.29-.13.53-.29.53h-2.21c-.16,0-.28-.24-.28-.53V.53c0-.29.12-.53.28-.53h2.21c.16,0,.29.24.29.53v1.63ZM12.53,19.12c0,.29-.13.53-.29.53h-3.53c-.16,0-.28-.24-.28-.53v-1.63c0-.29.12-.53.28-.53h.74c.16,0,.29-.24.29-.53v-8.37c0-.29-.13-.53-.29-.53h-.74c-.16,0-.28-.22-.28-.53v-1.63c0-.29.12-.53.28-.53h2.21c.16,0,.29.24.29.53v11.06c0,.29.13.53.29.53h.74c.16,0,.29.24.29.53v1.63Z"/><path class="cls-1" d="M19.66,6.74c0,.29.12.53.29.53h.73c.17,0,.29.24.29.53v11.33c0,.29-.12.53-.29.53h-.89c-.16,0-.29-.24-.29-.53v-11.06c0-.29-.12-.53-.29-.53h-3.23c-.16,0-.29.24-.29.53v11.06c0,.29-.13.53-.29.53h-.89c-.16,0-.28-.24-.28-.53V5.37c0-.29.12-.53.28-.53h4.85c.16,0,.29.24.29.53v1.37Z"/><path class="cls-1" d="M23.99,8.06c0-.29-.13-.53-.29-.53h-.74c-.16,0-.28-.22-.28-.53v-1.63c0-.29.12-.53.28-.53h.74c.16,0,.29-.22.29-.53v-1.35c0-.31.13-.53.29-.53h.89c.16,0,.29.22.29.53v1.35c0,.31.13.53.29.53h2.06c.16,0,.29.24.29.53v1.63c0,.31-.13.53-.29.53h-2.06c-.16,0-.29.24-.29.53v8.37c0,.29.13.53.29.53h2.06c.16,0,.29.24.29.53v1.63c0,.29-.13.53-.29.53h-2.21c-.16,0-.29-.24-.29-.53v-1.37c0-.29-.13-.53-.29-.53h-.74c-.16,0-.29-.22-.29-.53v-8.63Z"/><path class="cls-1" d="M35.22,6.74c0,.29.12.53.29.53h.73c.17,0,.29.24.29.53v4.06c0,.29-.12.53-.29.53h-4.69c-.16,0-.29.24-.29.53v3.51c0,.29.13.53.29.53h3.23c.17,0,.29-.24.29-.53v-1.37c0-.29.13-.53.29-.53h.89c.17,0,.29.24.29.53v1.63c0,.31-.12.53-.29.53h-.73c-.17,0-.29.24-.29.53v1.37c0,.29-.13.53-.29.53h-3.53c-.16,0-.29-.24-.29-.53v-1.37c0-.29-.13-.53-.29-.53h-.74c-.16,0-.28-.22-.28-.53V7.8c0-.29.12-.53.28-.53h.74c.16,0,.29-.24.29-.53v-1.37c0-.29.13-.53.29-.53h3.53c.16,0,.29.24.29.53v1.37ZM35.07,8.06c0-.29-.12-.53-.29-.53h-3.23c-.16,0-.29.24-.29.53v1.11c0,.29.13.53.29.53h3.23c.17,0,.29-.24.29-.53v-1.11Z"/><path class="cls-1" d="M40.88,5.37c0-.29.13-.53.29-.53h2.21c.16,0,.29.24.29.53v1.63c0,.31-.13.53-.29.53h-2.06c-.16,0-.29.24-.29.53v1.37c0,.29-.13.53-.29.53h-.74c-.16,0-.29.24-.29.53v8.63c0,.29-.13.53-.29.53h-.89c-.16,0-.28-.24-.28-.53V5.37c0-.29.12-.53.28-.53h.89c.16,0,.29.24.29.53v1.37c0,.29.13.53.29.53h.6c.16,0,.29-.24.29-.53v-1.37Z"/><path class="cls-1" d="M50.84,1.83c0,.33.1.49.28.49h.72c.18,0,.26.33.26.49v1.66c0,.33-.08.66-.26.66h-.9c-.1,0-.28-.33-.28-.66v-1.33c0-.33-.08-.49-.26-.49h-3.25c-.18,0-.28.15-.28.49v3.49c0,.33.1.66.28.66h2.08c.18,0,.26.18.26.51v1.33c0,.33.18.49.28.49h.82c.08,0,.26.33.26.51v1.5c0,.15.1.49.28.49h.72c.18,0,.26.18.26.51v3.98c0,.33-.08.66-.26.66h-.72c-.18,0-.28.18-.28.51v1.33c0,.33-.18.49-.26.49h-3.61c-.1,0-.28-.15-.28-.49v-1.33c0-.33-.08-.51-.26-.51h-.72c-.18,0-.28-.33-.28-.66v-1.5c0-.33.1-.66.28-.66h.9c.08,0,.26.33.26.66v1.35c0,.33.1.49.28.49h3.25c.18,0,.26-.15.26-.49v-3.49c0-.33-.08-.66-.26-.66h-.73c-.18,0-.26-.18-.26-.51v-1.33c0-.33-.18-.51-.36-.51h-2.07c-.1,0-.28-.33-.28-.49v-1.5c0-.15-.08-.49-.26-.49h-.72c-.18,0-.28-.18-.28-.51V2.8c0-.15.1-.49.28-.49h.72c.18,0,.26-.15.26-.49V.51c0-.33.18-.51.28-.51h3.61c.08,0,.26.18.26.51v1.33Z"/><path class="cls-1" d="M59.21,6.74c0,.29.12.53.29.53h.73c.17,0,.29.24.29.53v6.49c0,.29-.12.53-.29.53h-.73c-.17,0-.29.22-.29.53v1.35c0,.31-.13.53-.29.53h-3.38c-.16,0-.29.24-.29.53v3.8c0,.29-.13.53-.29.53h-.89c-.16,0-.28-.24-.28-.53V5.37c0-.29.12-.53.28-.53h4.85c.16,0,.29.24.29.53v1.37ZM59.06,8.06c0-.29-.12-.53-.29-.53h-3.23c-.16,0-.29.24-.29.53v5.94c0,.31.13.53.29.53h3.23c.17,0,.29-.22.29-.53v-5.94Z"/><path class="cls-1" d="M67.65,6.74c0,.29.12.53.29.53h.73c.17,0,.29.24.29.53v4.06c0,.29-.12.53-.29.53h-4.69c-.16,0-.29.24-.29.53v3.51c0,.29.13.53.29.53h3.23c.17,0,.29-.24.29-.53v-1.37c0-.29.13-.53.29-.53h.89c.17,0,.29.24.29.53v1.63c0,.31-.12.53-.29.53h-.73c-.17,0-.29.24-.29.53v1.37c0,.29-.13.53-.29.53h-3.53c-.16,0-.29-.24-.29-.53v-1.37c0-.29-.13-.53-.29-.53h-.74c-.16,0-.28-.22-.28-.53V7.8c0-.29.12-.53.28-.53h.74c.16,0,.29-.24.29-.53v-1.37c0-.29.13-.53.29-.53h3.53c.16,0,.29.24.29.53v1.37ZM67.49,8.06c0-.29-.12-.53-.29-.53h-3.23c-.16,0-.29.24-.29.53v1.11c0,.29.13.53.29.53h3.23c.17,0,.29-.24.29-.53v-1.11Z"/><path class="cls-1" d="M76.09,6.74c0,.29.12.53.29.53h.73c.17,0,.29.24.29.53v1.63c0,.29-.12.53-.29.53h-.89c-.16,0-.29-.24-.29-.53v-1.37c0-.29-.12-.53-.29-.53h-3.23c-.16,0-.29.24-.29.53v8.37c0,.29.13.53.29.53h3.23c.17,0,.29-.24.29-.53v-1.37c0-.29.13-.53.29-.53h.89c.17,0,.29.24.29.53v1.63c0,.31-.12.53-.29.53h-.73c-.17,0-.29.24-.29.53v1.37c0,.29-.13.53-.29.53h-3.53c-.16,0-.29-.24-.29-.53v-1.37c0-.29-.13-.53-.29-.53h-.74c-.16,0-.28-.22-.28-.53V7.8c0-.29.12-.53.28-.53h.74c.16,0,.29-.24.29-.53v-1.37c0-.29.13-.53.29-.53h3.53c.16,0,.29.24.29.53v1.37Z"/><path class="cls-1" d="M81.89,2.16c0,.29-.13.53-.29.53h-2.21c-.16,0-.28-.24-.28-.53V.53c0-.29.12-.53.28-.53h2.21c.16,0,.29.24.29.53v1.63ZM83.21,19.12c0,.29-.13.53-.29.53h-3.53c-.16,0-.28-.24-.28-.53v-1.63c0-.29.12-.53.28-.53h.74c.16,0,.29-.24.29-.53v-8.37c0-.29-.13-.53-.29-.53h-.74c-.16,0-.28-.22-.28-.53v-1.63c0-.29.12-.53.28-.53h2.21c.16,0,.29.24.29.53v11.06c0,.29.13.53.29.53h.74c.16,0,.29.24.29.53v1.63Z"/><path class="cls-1" d="M86.23,17.76c0-.29-.13-.53-.29-.53h-.74c-.16,0-.28-.22-.28-.53v-4.04c0-.31.12-.53.28-.53h.74c.16,0,.29-.24.29-.53v-1.37c0-.29.13-.53.29-.53h3.37c.17,0,.29-.24.29-.53v-1.11c0-.29-.12-.53-.29-.53h-3.37c-.16,0-.29-.22-.29-.53v-1.63c0-.29.13-.53.29-.53h3.53c.16,0,.29.24.29.53v1.37c0,.29.12.53.29.53h.73c.17,0,.29.24.29.53v11.33c0,.29-.12.53-.29.53h-4.83c-.16,0-.29-.24-.29-.53v-1.37ZM86.38,16.43c0,.29.13.53.29.53h3.23c.17,0,.29-.24.29-.53v-3.51c0-.29-.12-.53-.29-.53h-3.23c-.16,0-.29.24-.29.53v3.51Z"/><path class="cls-1" d="M97.45,19.12c0,.29-.13.53-.29.53h-3.53c-.16,0-.28-.24-.28-.53v-1.63c0-.29.12-.53.28-.53h.74c.16,0,.29-.24.29-.53V3.22c0-.29-.13-.53-.29-.53h-.74c-.16,0-.28-.24-.28-.53V.53c0-.29.12-.53.28-.53h2.21c.16,0,.29.24.29.53v15.9c0,.29.13.53.29.53h.74c.16,0,.29.24.29.53v1.63Z"/><path class="cls-1" d="M5.41,40.57c0,.29.12.53.29.53h.73c.17,0,.29.22.29.53v6.47c0,.29-.12.53-.29.53h-.73c-.17,0-.29.24-.29.53v1.1c0,.29.12.53.29.53h.73c.17,0,.29.22.29.53v6.47c0,.29-.12.53-.29.53h-.89c-.16,0-.29-.24-.29-.53v-6.21c0-.29-.12-.53-.29-.53H1.74c-.16,0-.29.24-.29.53v6.21c0,.29-.13.53-.29.53H.28c-.16,0-.28-.24-.28-.53v-18.59c0-.29.12-.53.28-.53h4.85c.16,0,.29.24.29.53v1.37ZM5.25,41.89c0-.29-.12-.53-.29-.53H1.74c-.16,0-.29.24-.29.53v5.94c0,.29.13.53.29.53h3.23c.17,0,.29-.24.29-.53v-5.94Z"/><path class="cls-1" d="M16.22,45.4c0,.29.12.53.29.53h.73c.17,0,.29.24.29.53v4.06c0,.29-.12.53-.29.53h-4.69c-.16,0-.29.24-.29.53v3.51c0,.29.13.53.29.53h3.23c.17,0,.29-.24.29-.53v-1.37c0-.29.13-.53.29-.53h.89c.17,0,.29.24.29.53v1.63c0,.31-.12.53-.29.53h-.73c-.17,0-.29.24-.29.53v1.37c0,.29-.13.53-.29.53h-3.53c-.16,0-.29-.24-.29-.53v-1.37c0-.29-.13-.53-.29-.53h-.74c-.16,0-.28-.22-.28-.53v-8.9c0-.29.12-.53.28-.53h.74c.16,0,.29-.24.29-.53v-1.37c0-.29.13-.53.29-.53h3.53c.16,0,.29.24.29.53v1.37ZM16.07,46.73c0-.29-.12-.53-.29-.53h-3.23c-.16,0-.29.24-.29.53v1.11c0,.29.13.53.29.53h3.23c.17,0,.29-.24.29-.53v-1.11Z"/><path class="cls-1" d="M27.03,45.4c0,.29.12.53.29.53h.73c.17,0,.29.24.29.53v11.33c0,.29-.12.53-.29.53h-.89c-.16,0-.29-.24-.29-.53v-11.06c0-.29-.12-.53-.29-.53h-.59c-.16,0-.29.24-.29.53v11.06c0,.29-.13.53-.29.53h-.89c-.16,0-.29-.24-.29-.53v-11.06c0-.29-.13-.53-.29-.53h-.6c-.16,0-.29.24-.29.53v11.06c0,.29-.13.53-.29.53h-.89c-.16,0-.28-.24-.28-.53v-13.76c0-.29.12-.53.28-.53h4.85c.16,0,.29.24.29.53v1.37Z"/><path class="cls-1" d="M35.21,40.83c0,.29-.13.53-.29.53h-2.21c-.16,0-.28-.24-.28-.53v-1.63c0-.29.12-.53.28-.53h2.21c.16,0,.29.24.29.53v1.63ZM36.53,57.79c0,.29-.13.53-.29.53h-3.53c-.16,0-.28-.24-.28-.53v-1.63c0-.29.12-.53.28-.53h.74c.16,0,.29-.24.29-.53v-8.37c0-.29-.13-.53-.29-.53h-.74c-.16,0-.28-.22-.28-.53v-1.63c0-.29.12-.53.28-.53h2.21c.16,0,.29.24.29.53v11.06c0,.29.13.53.29.53h.74c.16,0,.29.24.29.53v1.63Z"/><path class="cls-1" d="M45.87,44.03c0-.29.13-.53.29-.53h.89c.17,0,.29.24.29.53v1.63c0,.31-.12.53-.29.53h-.73c-.17,0-.29.24-.29.53v1.37c0,.29-.13.53-.29.53h-.74c-.16,0-.29.24-.29.53v1.1c0,.29.13.53.29.53h.74c.16,0,.29.22.29.53v1.35c0,.31.12.53.29.53h.73c.17,0,.29.24.29.53v4.06c0,.29-.12.53-.29.53h-.89c-.16,0-.29-.24-.29-.53v-3.78c0-.31-.12-.53-.29-.53h-.73c-.17,0-.29-.24-.29-.53v-1.37c0-.29-.13-.53-.29-.53h-.6c-.16,0-.29.24-.29.53v1.37c0,.29-.13.53-.29.53h-.74c-.16,0-.29.22-.29.53v3.78c0,.29-.13.53-.29.53h-.89c-.16,0-.28-.24-.28-.53v-4.06c0-.29.12-.53.28-.53h.74c.16,0,.29-.22.29-.53v-1.35c0-.31.13-.53.29-.53h.74c.16,0,.29-.24.29-.53v-1.1c0-.29-.13-.53-.29-.53h-.74c-.16,0-.29-.24-.29-.53v-1.37c0-.29-.13-.53-.29-.53h-.74c-.16,0-.28-.22-.28-.53v-1.63c0-.29.12-.53.28-.53h.89c.16,0,.29.24.29.53v1.37c0,.29.13.53.29.53h.74c.16,0,.29.24.29.53v1.37c0,.29.13.53.29.53h.6c.16,0,.29-.24.29-.53v-1.37c0-.29.12-.53.29-.53h.73c.17,0,.29-.24.29-.53v-1.37Z"/><path class="cls-1" d="M56.69,39.2c0-.29.13-.53.29-.53h.89c.17,0,.29.24.29.53v18.59c0,.29-.12.53-.29.53h-.89c-.16,0-.29-.24-.29-.53v-1.37c0-.29-.12-.53-.29-.53h-.73c-.17,0-.29-.22-.29-.53v-3.78c0-.29-.13-.53-.29-.53h-.74c-.16,0-.29-.24-.29-.53v-3.8c0-.29-.13-.53-.29-.53h-.6c-.16,0-.29.24-.29.53v11.06c0,.29-.13.53-.29.53h-.89c-.16,0-.28-.24-.28-.53v-18.59c0-.29.12-.53.28-.53h.89c.16,0,.29.24.29.53v1.37c0,.29.13.53.29.53h.74c.16,0,.29.22.29.53v3.78c0,.29.13.53.29.53h.74c.16,0,.29.24.29.53v3.8c0,.29.13.53.29.53h.59c.17,0,.29-.24.29-.53v-11.06Z"/><path class="cls-1" d="M65.02,40.83c0,.29-.13.53-.29.53h-2.21c-.16,0-.28-.24-.28-.53v-1.63c0-.29.12-.53.28-.53h2.21c.16,0,.29.24.29.53v1.63ZM66.33,57.79c0,.29-.13.53-.29.53h-3.53c-.16,0-.28-.24-.28-.53v-1.63c0-.29.12-.53.28-.53h.74c.16,0,.29-.24.29-.53v-8.37c0-.29-.13-.53-.29-.53h-.74c-.16,0-.28-.22-.28-.53v-1.63c0-.29.12-.53.28-.53h2.21c.16,0,.29.24.29.53v11.06c0,.29.13.53.29.53h.74c.16,0,.29.24.29.53v1.63Z"/><path class="cls-1" d="M71.74,44.03c0-.29.13-.53.29-.53h4.83c.17,0,.29.24.29.53v13.76c0,.29-.12.53-.29.53h-.73c-.17,0-.29.24-.29.53v1.37c0,.29-.13.53-.29.53h-3.53c-.16,0-.29-.24-.29-.53v-1.63c0-.29.13-.53.29-.53h3.37c.17,0,.29-.24.29-.53v-1.1c0-.29-.12-.53-.29-.53h-3.37c-.16,0-.29-.22-.29-.53v-1.35c0-.31-.13-.53-.29-.53h-.74c-.16,0-.28-.24-.28-.53v-6.49c0-.29.12-.53.28-.53h.74c.16,0,.29-.24.29-.53v-1.37ZM71.88,52.67c0,.31.13.53.29.53h3.23c.17,0,.29-.22.29-.53v-5.94c0-.29-.12-.53-.29-.53h-3.23c-.16,0-.29.24-.29.53v5.94Z"/><path class="cls-1" d="M86.65,45.4c0,.29.12.53.29.53h.73c.17,0,.29.24.29.53v11.33c0,.29-.12.53-.29.53h-.89c-.16,0-.29-.24-.29-.53v-11.06c0-.29-.12-.53-.29-.53h-3.23c-.16,0-.29.24-.29.53v11.06c0,.29-.13.53-.29.53h-.89c-.16,0-.28-.24-.28-.53v-18.59c0-.29.12-.53.28-.53h.89c.16,0,.29.24.29.53v3.78c0,.31.13.53.29.53h3.38c.16,0,.29.24.29.53v1.37Z"/><path class="cls-1" d="M93.35,46.73c0-.29-.13-.53-.29-.53h-.74c-.16,0-.28-.22-.28-.53v-1.63c0-.29.12-.53.28-.53h.74c.16,0,.29-.22.29-.53v-1.35c0-.31.13-.53.29-.53h.89c.16,0,.29.22.29.53v1.35c0,.31.13.53.29.53h2.06c.16,0,.29.24.29.53v1.63c0,.31-.13.53-.29.53h-2.06c-.16,0-.29.24-.29.53v8.37c0,.29.13.53.29.53h2.06c.16,0,.29.24.29.53v1.63c0,.29-.13.53-.29.53h-2.21c-.16,0-.29-.24-.29-.53v-1.37c0-.29-.13-.53-.29-.53h-.74c-.16,0-.29-.22-.29-.53v-8.63Z"/></g></svg>